#!OML:ASF H:\Terrain\Patient Classification 1\Takeo\Monday\TakeoMonday.ASF
:FULLY-SPECIFIED
:DEGREES
496
root 12.5497 15.5228 -1.05861 -3.65666 -36.0114 27.3586
lowerback 22.342 -3.30315 8.67099
upperback 14.3187 -3.34712 8.11772
thorax 3.56979 -1.69353 4.58667
lowerneck -9.45004 -10.9933 -5.83846
upperneck 18.4928 -15.0324 4.68635
head 8.07616 -7.03646 0.943099
rclavicle 1.17681e-013 6.67916e-014
rhumerus 3.29673 33.7031 -51.2867
rradius 62.5362
rwrist -15.5528
rhand -39.8821 40.0252
rfingers 7.12502
rthumb -12.8541 10.441
lclavicle 1.17681e-013 6.67916e-014
lhumerus -24.6883 -9.5474 98.6123
lradius 63.5968
lwrist 42.9878
lhand -20.8671 17.623
lfingers 7.12502
lthumb 5.50265 47.5315
rfemur -55.9068 17.7331 -22.439
rtibia 69.447
rfoot -24.669 -13.3486
rtoes -33.6217
lfemur -41.3791 25.0787 -61.0632
ltibia 55.9603
lfoot -31.1712 17.6326
ltoes -0.855892
497
root 12.5447 15.5569 -1.05077 -3.78459 -36.0188 27.3613
lowerback 21.9295 -3.27285 8.65062
upperback 14.266 -3.3598 8.02102
thorax 3.701 -1.69042 4.4684
lowerneck -9.04142 -11.0267 -6.24763
upperneck 18.5076 -15.0918 4.97374
head 8.06917 -7.07442 1.10887
rclavicle -1.90833e-014 -2.22639e-014
rhumerus 2.82573 34.5665 -51.2342
rradius 62.9587
rwrist -15.1349
rhand -38.6063 41.2245
rfingers 7.12502
rthumb -11.624 11.5669
lclavicle -1.90833e-014 -2.22639e-014
lhumerus -24.7198 -9.55888 98.6208
lradius 63.5336
lwrist 43.0085
lhand -20.5511 18.1158
lfingers 7.12502
lthumb 5.8078 48.0162
rfemur -55.6426 18.1015 -22.547
rtibia 69.1666
rfoot -24.9155 -12.6175
rtoes -29.5206
lfemur -40.9828 25.1347 -60.9295
ltibia 55.5197
lfoot -31.0955 17.4309
ltoes -1.43184
498
root 12.5371 15.5846 -1.0433 -3.88226 -36.0059 27.2684
lowerback 21.7092 -3.29446 8.51747
upperback 14.2101 -3.43002 7.97016
thorax 3.74403 -1.72983 4.48611
lowerneck -8.92024 -10.9491 -6.39274
upperneck 18.6213 -15.0096 5.12696
head 8.10506 -7.03326 1.19226
rclavicle 3.18055e-015 -1.30403e-013
rhumerus 2.63227 35.7663 -51.0774
rradius 63.4279
rwrist -15.1342
rhand -37.5785 41.9689
rfingers 7.12502
rthumb -10.6327 12.2579
lclavicle 3.18055e-015 -1.30403e-013
lhumerus -24.6447 -9.32947 98.5774
lradius 63.3275
lwrist 42.9031
lhand -19.594 18.1362
lfingers 7.12502
lthumb 6.73171 48.0092
rfemur -55.2939 18.4553 -22.4905
rtibia 68.8772
rfoot -24.9406 -12.3667
rtoes -26.8247
lfemur -40.5834 25.2019 -60.7005
ltibia 55.1692
lfoot -31.1943 17.1721
ltoes -2.27696
499
root 12.5293 15.6169 -1.03505 -3.84717 -36.0263 26.8488
lowerback 21.5481 -3.27413 8.71647
upperback 14.1714 -3.38996 7.97687
thorax 3.77272 -1.69589 4.36644
lowerneck -8.85814 -10.9284 -6.3164
upperneck 18.7589 -15.0258 5.21293
head 8.14188 -7.02664 1.20704
rclavicle 9.54166e-015 3.18055e-014
rhumerus 1.96527 36.5611 -51.2677
rradius 64.1109
rwrist -14.9978
rhand -37.867 41.6609
rfingers 7.12502
rthumb -10.911 11.9644
lclavicle 9.54166e-015 3.18055e-014
lhumerus -24.5888 -9.46402 98.6493
lradius 63.1119
lwrist 42.9302
lhand -19.5677 17.5804
lfingers 7.12502
lthumb 6.75714 47.4525
rfemur -54.8479 18.7714 -22.002
rtibia 68.5315
rfoot -24.7506 -12.5186
rtoes -25.721
lfemur -40.1582 25.3503 -60.18
ltibia 54.8572
lfoot -31.3721 16.8025
ltoes -1.21193
500
root 12.5244 15.6504 -1.02834 -3.92053 -36.1016 26.6601
lowerback 21.2966 -3.23343 8.79479
upperback 14.2035 -3.36544 7.85013
thorax 3.91959 -1.6673 4.16314
lowerneck -9.12041 -10.9272 -5.84043
upperneck 19.0743 -15.0488 4.88653
head 8.22991 -7.0218 1.00973
rclavicle -1.59028e-014 -6.52014e-014
rhumerus 1.39716 37.1935 -51.6491
rradius 64.6241
rwrist -14.6271
rhand -38.3645 41.3902
rfingers 7.12502
rthumb -11.3909 11.7196
lclavicle -1.59028e-014 -6.52014e-014
lhumerus -24.4904 -9.71787 98.5023
lradius 63.0273
lwrist 42.9581
lhand -20.1996 17.1559
lfingers 7.12502
lthumb 6.1471 47.0467
rfemur -54.5042 19.0205 -21.7407
rtibia 68.1331
rfoot -24.5044 -12.603
rtoes -25.5193
lfemur -39.7996 25.5164 -59.8827
ltibia 54.5234
lfoot -31.2185 16.6876
ltoes -0.0377442
501
root 12.522 15.6848 -1.02645 -4.36531 -36.1507 27.128
lowerback 21.1333 -3.21663 8.11257
upperback 14.2408 -3.47566 7.65702
thorax 4.04498 -1.75612 4.33681
lowerneck -9.59623 -10.8264 -5.40505
upperneck 19.5178 -14.8981 4.39065
head 8.37933 -6.94806 0.768811
rclavicle -4.45278e-014 2.38542e-014
rhumerus 1.53897 38.3114 -51.5855
rradius 64.9129
rwrist -14.5842
rhand -38.2858 41.5539
rfingers 7.12502
rthumb -11.3149 11.8792
lclavicle -4.45278e-014 2.38542e-014
lhumerus -24.4111 -9.31293 98.3241
lradius 63.0994
lwrist 42.8337
lhand -20.1574 17.2853
lfingers 7.12502
lthumb 6.18787 47.1749
rfemur -54.1876 19.2044 -22.1455
rtibia 67.7096
rfoot -24.749 -12.3729
rtoes -26.2601
lfemur -39.4212 25.6312 -60.1276
ltibia 54.1259
lfoot -30.8793 16.6436
ltoes 0.691873
